<?xml version="1.0" encoding="UTF-8"?>
<svg version="1.1" xmlns="http://www.w3.org/2000/svg" width="310" height="300">
    <path d="M0 0 C24.67138681 -0.91375507 52.26979378 12.69645673 71 28 C74.38636204 26.97382968 76.19341463 25.81947968 78.8125 23.375 C84.62536184 18.21357957 92.01422817 15.25610565 99 12 C99.76441406 11.6405127 100.52882812 11.28102539 101.31640625 10.91064453 C115.14842047 4.44204189 127.95353106 -0.24666431 143.4375 -0.0625 C144.16904297 -0.05798828 144.90058594 -0.05347656 145.65429688 -0.04882812 C147.43623419 -0.03718148 149.21812863 -0.01925191 151 0 C151.32871094 1.50240234 151.32871094 1.50240234 151.6640625 3.03515625 C154.04469349 13.76932376 154.04469349 13.76932376 161 22 C163.93419367 23.69739233 166.16991907 24.27715888 169.546875 24.4140625 C170.39121094 24.45273438 171.23554688 24.49140625 172.10546875 24.53125 C173.41451172 24.57765625 173.41451172 24.57765625 174.75 24.625 C175.63816406 24.66367188 176.52632812 24.70234375 177.44140625 24.7421875 C179.6273998 24.83620873 181.81339062 24.92186143 184 25 C180.25 28.875 180.25 28.875 178 30 C178.061875 31.19625 178.12375 32.3925 178.1875 33.625 C178.11009304 58.31781945 163.23659689 81.48493092 147 99 C148.58885185 103.65944194 151.13875746 107.33901834 153.875 111.375 C165.51055024 129.03324531 176.82198654 148.4030866 178 170 C182.92824358 167.61933332 185.1545642 164.46052024 187.9375 159.9375 C188.3713501 159.23359131 188.8052002 158.52968262 189.25219727 157.80444336 C193.89050229 149.95121479 196.69134377 141.78753297 199 133 C199.33902344 131.75992188 199.67804688 130.51984375 200.02734375 129.2421875 C204.79281337 107.85247595 204.05889491 82.68874268 197 62 C196.53400391 60.63101563 196.53400391 60.63101563 196.05859375 59.234375 C192.97643667 50.38677114 189.7884627 41.91516938 184.85546875 33.91894531 C184 32 184 32 185 29 C187.31 28.67 189.62 28.34 192 28 C207.31615079 49.01897289 212.59922636 74.76814537 212.39111328 100.34204102 C212.3749278 102.69801005 212.3911392 105.05228289 212.41015625 107.40820312 C212.43207343 121.37535818 210.15461589 134.12494009 205.1875 147.25 C204.8371167 148.19238525 204.4867334 149.13477051 204.12573242 150.10571289 C200.53525702 159.55945836 196.09684863 167.93064152 190 176 C189.16597656 175.77183594 188.33195313 175.54367188 187.47265625 175.30859375 C178.21806219 172.94459091 170.45833887 171.78149492 161.84375 176.6015625 C154.2761414 182.34140122 151.78115899 192.34887269 149 201 C122.65671587 202.50692515 98.27172586 190.39932212 77 176 C74.35462775 173.79553669 74.35462775 173.79553669 72.23828125 174.12109375 C68.99531008 175.39451175 66.13134531 177.22421188 63.1875 179.0625 C44.37788207 190.51492663 23.72766804 201.62841478 1 201 C1 198.03 1 195.06 1 192 C4.96114944 190.54095593 8.78804302 189.63795434 12.96118164 189.01293945 C21.25950362 187.76486733 28.42346189 185.7068524 36 182 C36.6172998 181.70432129 37.23459961 181.40864258 37.87060547 181.10400391 C46.83092896 176.80646042 55.49860082 172.15236314 64 167 C61.15884827 163.97554816 58.25137012 161.37546563 54.9375 158.875 C36.62400281 144.82256404 21.36682506 127.69933506 8 109 C-6.70301762 122.36637965 -18.18046482 146.0066403 -19.5625 165.75 C-19.64628906 166.92046875 -19.73007812 168.0909375 -19.81640625 169.296875 C-19.90728516 170.63492188 -19.90728516 170.63492188 -20 172 C-21.16015625 171.82210937 -21.16015625 171.82210937 -22.34375 171.640625 C-29.7338043 170.72601432 -33.65128451 171.12022942 -40 175 C-40.66 175 -41.32 175 -42 175 C-55.2112948 152.20660007 -63.18828255 130.90616218 -63.18530273 104.25170898 C-63.18746313 102.09923725 -63.20558363 99.94730147 -63.22460938 97.79492188 C-63.28119319 84.38849562 -62.16449764 71.2815604 -58.3125 58.375 C-58.05267334 57.49183105 -57.79284668 56.60866211 -57.52514648 55.69873047 C-54.41669597 45.55264458 -50.70049174 35.46106721 -42.48046875 28.33203125 C-40.73739197 26.8742395 -40.73739197 26.8742395 -39 24 C-36.2712015 23.88330796 -33.71567933 23.9186844 -31 24.0625 C-22.91524926 24.25229084 -16.49798501 23.69065437 -10.01953125 18.375 C-4.90706302 13.14262314 -2.45662662 6.79251601 0 0 Z M-1 10 C-1.1959375 10.65226562 -1.391875 11.30453125 -1.59375 11.9765625 C-3.96826842 18.91588788 -6.73459873 22.28028125 -13 26 C-13.68449219 26.4125 -14.36898437 26.825 -15.07421875 27.25 C-16.69793948 28.19854274 -18.34650968 29.10435941 -20 30 C-19.60334157 51.05895642 -10.4684361 69.41667059 2 86 C2.98231426 87.37275309 3.96179845 88.74753899 4.9375 90.125 C5.618125 91.07375 6.29875 92.0225 7 93 C9.09795157 90.40616897 11.15444938 87.7940675 13.15625 85.125 C18.82974401 77.56034133 24.83762383 70.50135083 31.38623047 63.68115234 C32.48131507 62.54034258 33.57133365 61.39465238 34.65673828 60.24462891 C43.24179484 51.16871436 52.69197414 41.65401293 64 36 C59.76251605 25.34910409 38.88160025 19.29213506 29 15 C19.21889663 11.05839431 9.4196108 10.27063924 -1 10 Z M81 34 C86.74469202 39.93000467 92.8720659 45.42917771 99.4375 50.4375 C111.14783972 59.44388975 120.93387801 69.96732628 130.0390625 81.5625 C133.21149075 85.50591679 136.59816837 89.25436624 140 93 C154.52666539 79.13479398 165.27796798 58.81034418 168 39 C168.26683594 37.93458984 168.26683594 37.93458984 168.5390625 36.84765625 C169.05961141 34.54762187 169.05961141 34.54762187 168 31 C165.65457411 28.92899991 163.2299227 27.12301586 160.64257812 25.3659668 C155.9944808 22.18246123 153.39185382 19.03151232 151 14 C150.63132812 13.26394531 150.26265625 12.52789062 149.8828125 11.76953125 C149.59148437 11.18558594 149.30015625 10.60164063 149 10 C125.97648912 8.80912875 98.05781338 17.91691881 81 34 Z M-36 30 C-36.53625 31.546875 -37.0725 33.09375 -37.625 34.6875 C-39.10804863 38.81922144 -40.81694501 42.65699023 -42.8125 46.5625 C-56.30161261 75.02039829 -58.15951952 109.6340081 -48.90234375 139.546875 C-45.36558324 149.37787033 -40.6642532 160.86629967 -34 169 C-33.01 168.67 -32.02 168.34 -31 168 C-30.10321815 165.64794711 -30.10321815 165.64794711 -29.5625 162.75 C-29.30726562 161.65042969 -29.05203125 160.55085937 -28.7890625 159.41796875 C-28.52867188 158.29003906 -28.26828125 157.16210938 -28 156 C-23.41071315 137.37144317 -13.71401105 115.71401105 0 102 C-0.18525266 97.09521538 -2.98159799 93.63404175 -5.6875 89.75 C-6.14302246 89.07743164 -6.59854492 88.40486328 -7.06787109 87.71191406 C-8.90668506 85.00173891 -10.76389537 82.31839167 -12.71484375 79.6875 C-16.38396875 74.64626454 -18.81155586 69.20979503 -21.25 63.5 C-21.5917627 62.70432617 -21.93352539 61.90865234 -22.28564453 61.08886719 C-25.03608318 54.4368347 -27.30470538 47.52581493 -27.25 40.25 C-27.25515625 39.55390625 -27.2603125 38.8578125 -27.265625 38.140625 C-27 36 -27 36 -25 31 C-30.445 30.505 -30.445 30.505 -36 30 Z M66.375 44.375 C65.075625 45.48294922 65.075625 45.48294922 63.75 46.61328125 C62.8425 47.40089844 61.935 48.18851563 61 49 C59.12882029 50.52553123 57.25382403 52.04639338 55.375 53.5625 C52.00391 56.33417855 48.63766299 59.11081823 45.3125 61.9375 C44.66925781 62.48277344 44.02601562 63.02804688 43.36328125 63.58984375 C41.76831453 64.91275231 41.76831453 64.91275231 42 67 C41.34 67 40.68 67 40 67 C38.56532984 68.37957416 38.56532984 68.37957416 37.0625 70.25 C33.96631754 73.90207325 30.76171861 77.43378111 27.5 80.9375 C23.55053805 85.19573439 19.87108667 89.5709667 16.4375 94.2578125 C15 96 15 96 12 98 C13.39628918 102.07190091 15.30567602 104.89584244 18.0625 108.1875 C19.2690625 109.62996094 19.2690625 109.62996094 20.5 111.1015625 C23.54708339 114.6342748 26.67199274 118.08879656 29.8203125 121.53125 C31.97266734 123.96904258 33.95633947 126.48460437 35.9375 129.0625 C40.1056009 134.34705649 44.90722863 138.62685937 50 143 C51.56468291 144.39338592 53.12726959 145.78913023 54.6875 147.1875 C57.89980197 150.04287953 61.15161868 152.84382609 64.44140625 155.609375 C66 157 66 157 68.6875 159.9375 C69.450625 160.618125 70.21375 161.29875 71 162 C74.3463989 161.6854385 75.85755539 160.43615364 78.0625 158 C82.65296833 153.19234822 87.83073978 149.16265465 93 145 C95.40135572 143.05071298 97.71184511 141.08476334 100 139 C100 138.34 100 137.68 100 137 C100.556875 136.773125 101.11375 136.54625 101.6875 136.3125 C104.66159588 134.62449964 106.72008865 132.53323483 109 130 C109 129.34 109 128.68 109 128 C109.57621094 127.77054687 110.15242188 127.54109375 110.74609375 127.3046875 C113.59163398 125.65752903 115.04869562 123.72224303 117.0625 121.125 C120.54491178 116.74595396 124.14170359 112.54767797 127.9375 108.4375 C128.41002197 107.92525879 128.88254395 107.41301758 129.36938477 106.88525391 C131.21707032 104.89172491 133.07786151 102.92213849 135 101 C129.69032187 94.30926922 124.17259915 87.94619355 118.32568359 81.72705078 C114.70481409 77.84679663 111.41366299 73.81942857 108.3046875 69.51171875 C107.87414062 69.01285156 107.44359375 68.51398438 107 68 C106.34 68 105.68 68 105 68 C105 67.34 105 66.68 105 66 C104.34 66 103.68 66 103 66 C102.80277344 65.44699219 102.60554688 64.89398438 102.40234375 64.32421875 C100.42344104 61.04442178 97.58084811 59.07496058 94.5625 56.8125 C93.29328111 55.84374323 92.02506453 54.87367199 90.7578125 53.90234375 C90.12520508 53.41878418 89.49259766 52.93522461 88.84082031 52.43701172 C85.25940563 49.64122832 81.83646107 46.65345319 78.40234375 43.6796875 C73.43584181 40.20717395 70.88054268 40.4420681 66.375 44.375 Z M138 108 C137.52691406 108.67804688 137.05382812 109.35609375 136.56640625 110.0546875 C132.33718557 116.00692401 127.9005214 121.50241029 122.8828125 126.80859375 C120.94468662 128.86496327 120.94468662 128.86496327 119.9921875 131.16015625 C118.71538029 133.52777907 117.3990385 133.88257713 115 135 C113.51518743 136.49842235 113.51518743 136.49842235 112.125 138.3125 C102.8462403 149.27466319 91.64059762 159.15300962 79 166 C79 166.66 79 167.32 79 168 C107.68666875 183.51321565 107.68666875 183.51321565 139 192 C139.82628906 192.16242188 140.65257812 192.32484375 141.50390625 192.4921875 C143.80651762 192.8965779 143.80651762 192.8965779 147 192 C149.48046537 189.26393633 151.22024532 186.22206351 153 183 C156.5929073 177.27796244 162.12033533 174.94996969 168 172 C167.93869002 169.72846537 167.84958909 167.45767851 167.75 165.1875 C167.70359375 163.92292969 167.6571875 162.65835938 167.609375 161.35546875 C166.58909681 151.36442079 161.37633885 142.38761326 156.67407227 133.70166016 C155.68814778 131.87619938 154.71950981 130.04228044 153.75195312 128.20703125 C147.96585015 115.97542962 147.96585015 115.97542962 138 108 Z " fill="#000000" transform="translate(83,55)"/>
    <path d="M0 0 C7.82366687 4.37955265 13.5080318 10.23704782 16.875 18.609375 C19.45238089 29.13646966 17.68337617 37.97986835 12.875 47.609375 C8.59930854 54.65094403 1.61492344 59.25935916 -6.23828125 61.49609375 C-15.78793053 63.29165655 -25.6226502 62.76850437 -34.25 57.93359375 C-42.44252614 52.14762216 -47.96139527 44.84213863 -49.8046875 34.921875 C-51.21467943 24.74242104 -49.01209568 16.20242018 -42.9375 7.796875 C-31.99673537 -5.36512479 -15.10664611 -6.72245752 0 0 Z M-37 11.421875 C-38.93513311 15.18463383 -39.49792903 18.83796211 -38.625 22.984375 C-37.07852685 24.91927665 -37.07852685 24.91927665 -33.8125 25.734375 C-30.01267271 25.98433418 -30.01267271 25.98433418 -27.4375 23.359375 C-24.34612493 18.99447664 -22.37633193 13.78533889 -21.125 8.609375 C-21.455 7.619375 -21.785 6.629375 -22.125 5.609375 C-28.40999747 4.99620451 -32.56696333 7.13660622 -37 11.421875 Z " fill="#000000" transform="translate(172.125,125.390625)"/>
    <path d="M0 0 C1.2981665 0.6043689 1.2981665 0.6043689 2.62255859 1.22094727 C8.04347856 3.86870694 12.26497004 6.89379135 16.6875 11 C14.5625 13.5625 14.5625 13.5625 11.6875 16 C6.58879563 15.78694175 2.59323057 13.61278975 -1.8125 11.25 C-19.44643417 2.20509485 -38.47548974 -2.29355377 -58.3125 -3 C-59.32054687 -3.06316406 -60.32859375 -3.12632813 -61.3671875 -3.19140625 C-85.39560036 -4.0677366 -113.31246972 3.40178859 -132.2734375 18.49609375 C-134.3125 20 -134.3125 20 -136.3125 20 C-137.6325 16.7 -138.9525 13.4 -140.3125 10 C-136.53183736 6.75223076 -132.57647095 4.37746964 -128.125 2.1875 C-127.42938965 1.84493164 -126.7337793 1.50236328 -126.01708984 1.14941406 C-85.39697574 -18.47776198 -41.02740376 -19.20884156 0 0 Z " fill="#000000" transform="translate(219.3125,31)"/>
    <path d="M0 0 C4.76852038 0.55724089 8.33832731 2.76883248 12.375 5.1875 C40.76004192 21.63093254 74.22922414 24.41746448 105.80078125 16.01782227 C116.86482915 12.94175874 127.94659554 9.50871743 137.5625 3.0625 C140.0126559 1.44299397 140.72463978 1.00625819 143.75 0.9375 C146.43209965 2.20404706 148.06150704 3.77432289 150 6 C147.32002753 13.02918492 138.53286561 15.88602453 132.05859375 18.83203125 C95.41809858 34.84140235 56.81185167 35.61198265 19.63037109 21.21118164 C4.15197435 14.97119217 4.15197435 14.97119217 -2 10 C-2.94921875 7.4375 -2.94921875 7.4375 -3 5 C-1.5625 2.1875 -1.5625 2.1875 0 0 Z " fill="#000000" transform="translate(84,261)"/>
    <path d="M0 0 C4.29899737 2.25320257 7.31087703 5.2628653 9.90625 9.30859375 C11.47218252 14.91729324 11.19844113 19.92692761 8.90625 25.30859375 C6.1475932 29.28073594 3.47806709 32.49192067 -1.09375 34.30859375 C-6.25411624 35.12891075 -11.0022603 34.7280822 -15.453125 31.75390625 C-19.61601787 28.08659587 -22.54704419 24.05774295 -23.640625 18.55859375 C-23.97154803 11.94013318 -22.47263645 7.28515551 -18.09375 2.30859375 C-13.43005918 -2.08076231 -5.87166816 -1.93896504 0 0 Z " fill="#000000" transform="translate(63.09375,234.69140625)"/>
    <path d="M0 0 C3.03195382 1.65881972 4.67770724 2.78569718 6.875 5.5 C8.44019514 11.53718127 9.09512613 18.02247783 6.1875 23.75 C2.85647144 28.02054944 -0.57913695 30.82071195 -5.625 32.8125 C-10.57226819 32.9302921 -15.26530763 32.59149069 -19.12890625 29.25 C-23.67315476 23.99400172 -24.55163303 20.63742694 -24.4609375 13.69921875 C-24.0585663 8.3119155 -22.36854391 4.6062872 -18.25 1 C-12.13011534 -3.3349183 -6.6667792 -3.03654761 0 0 Z " fill="#000000" transform="translate(265.25,237.125)"/>
    <path d="M0 0 C4.59533406 6.48753044 7.38797171 11.86084897 6.125 20 C4.28366581 24.60333548 1.34466689 26.53852765 -2.875 29 C-8.29881097 30.80793699 -14.14067405 31.04299031 -19.52734375 28.98828125 C-23.27152107 26.9675178 -25.48169095 25.58996358 -27.875 22 C-28.76190659 16.16023842 -28.0775083 10.03100313 -24.875 5 C-18.45023335 -1.27471903 -8.17336823 -5.68582138 0 0 Z " fill="#000000" transform="translate(66.875,43)"/>
    <path d="M0 0 C5.28105878 3.21759873 8.73963096 6.90608469 10.359375 12.9375 C11.02713295 17.0853042 11.33891526 20.94924168 9.44140625 24.80078125 C6.0769033 29.18878995 2.21050038 31.4652277 -3.1875 32.359375 C-8.68979972 32.7545678 -11.95872425 32.28183343 -16.203125 28.625 C-21.59648235 23.27649386 -21.59648235 23.27649386 -21.72265625 19.44921875 C-21.19664519 13.93753763 -20.58118174 9.66796084 -17.640625 4.9375 C-18.300625 5.5975 -18.960625 6.2575 -19.640625 6.9375 C-20.630625 6.9375 -21.620625 6.9375 -22.640625 6.9375 C-22.970625 8.2575 -23.300625 9.5775 -23.640625 10.9375 C-24.640625 7.9375 -24.640625 7.9375 -23.8203125 6.18359375 C-23.17449219 5.28833984 -23.17449219 5.28833984 -22.515625 4.375 C-22.10054687 3.77558594 -21.68546875 3.17617188 -21.2578125 2.55859375 C-16.00887872 -2.70301861 -6.52364468 -2.62489845 0 0 Z " fill="#000000" transform="translate(263.640625,42.0625)"/>
    <path d="" fill="#000000" transform="translate(0,0)"/>
    <path d="" fill="#000000" transform="translate(0,0)"/>
    <path d="" fill="#000000" transform="translate(0,0)"/>
    <path d="" fill="#000000" transform="translate(0,0)"/>
    <path d="" fill="#000000" transform="translate(0,0)"/>
</svg>