<?xml version="1.0" standalone="no"?>
<!DOCTYPE svg PUBLIC "-//W3C//DTD SVG 20010904//EN"
 "http://www.w3.org/TR/2001/REC-SVG-20010904/DTD/svg10.dtd">
<svg version="1.0" xmlns="http://www.w3.org/2000/svg"
 width="612.000000pt" height="612.000000pt" viewBox="0 0 1024.000000 1024.000000"
 preserveAspectRatio="xMidYMid meet">
<metadata>

</metadata>
<g transform="translate(0.000000,1024.000000) scale(0.100000,-0.100000)"
fill="#000000" stroke="none">
<path d="M0 5120 l0 -5120 5120 0 5120 0 0 5120 0 5121 -4997 -2 c-2973 0
-5005 -5 -5015 -10 -10 -5 -19 -5 -22 0 -3 5 -51 9 -106 10 l-100 1 0 -5120z
m7959 3593 c106 -52 88 -187 -55 -415 -90 -143 -113 -173 -251 -324 -210 -231
-582 -540 -914 -762 -517 -344 -1055 -604 -1363 -658 -183 -32 -266 5 -266
118 0 96 66 235 193 408 48 65 452 496 468 499 6 1 29 -68 29 -87 0 -6 -92
-108 -204 -226 -206 -218 -243 -268 -253 -345 -8 -56 25 -123 70 -144 94 -45
248 3 678 211 436 212 629 334 989 626 227 185 286 243 329 326 19 36 56 94
83 130 97 128 140 260 104 314 -9 15 -37 33 -66 43 -27 10 -50 21 -50 24 0 9
55 19 107 19 84 0 133 -51 118 -122 -18 -82 -116 -240 -210 -338 -126 -132
-124 -145 8 -45 104 79 133 112 220 257 105 176 118 255 51 321 -89 90 -393
34 -618 -113 -112 -73 -111 -73 -151 -56 -58 24 -49 36 95 118 281 160 567
254 744 243 46 -3 94 -12 115 -22z m-1185 -378 c127 -37 169 -60 257 -143 57
-54 94 -100 134 -168 30 -51 55 -96 55 -100 0 -13 -156 -160 -253 -239 -212
-172 -293 -229 -484 -337 -71 -41 -81 -45 -65 -25 14 17 -2 54 -27 62 -12 3
-21 11 -21 16 0 5 -6 9 -12 9 -12 0 -91 37 -160 76 -16 8 -28 22 -28 30 0 7
-4 14 -10 14 -5 0 -10 -6 -10 -14 0 -20 -49 -11 -71 13 -10 11 -19 27 -19 36
0 9 -12 18 -30 22 -16 3 -30 12 -30 19 0 8 -4 14 -10 14 -5 0 -10 -5 -10 -10
0 -24 41 -155 63 -203 28 -59 127 -167 154 -167 10 0 24 -4 32 -9 20 -13 -3
-41 -34 -41 -34 0 -147 125 -185 204 -83 174 -81 394 5 609 106 265 459 419
759 332z m526 -75 c-13 -24 -5 -40 19 -40 11 0 21 -9 24 -22 5 -18 8 -19 21
-8 12 9 19 10 30 1 11 -9 15 -8 20 5 4 9 9 14 12 11 12 -11 -78 -137 -98 -137
-5 0 -18 19 -28 43 -10 23 -35 60 -55 81 -21 24 -32 43 -27 48 7 7 74 35 90
38 1 0 -2 -9 -8 -20z m-2255 -140 c231 -16 446 -56 672 -127 114 -35 116 -37
97 -94 l-15 -46 -147 43 c-160 46 -239 64 -407 91 -139 22 -588 25 -735 5
-371 -53 -729 -166 -1050 -334 -163 -85 -270 -153 -412 -264 l-107 -83 -6 32
c-16 99 -14 108 40 149 185 143 565 344 850 450 131 48 390 115 550 142 274
46 406 53 670 36z m3135 -83 c0 -105 38 -315 65 -366 42 -76 76 -90 236 -96
161 -7 219 -13 219 -25 0 -13 -38 -19 -205 -35 -90 -9 -168 -21 -185 -30 -38
-19 -96 -92 -104 -130 -3 -16 -13 -95 -21 -174 -20 -208 -24 -205 -54 43 -31
247 -48 264 -279 289 -128 13 -177 26 -160 42 3 3 53 10 111 15 210 20 243 33
282 111 30 59 41 105 55 239 15 149 21 181 31 174 5 -3 9 -29 9 -57z m-5500
-12 c93 -47 146 -116 156 -201 9 -74 -25 -167 -84 -227 -60 -62 -88 -77 -165
-84 -145 -13 -249 60 -284 201 -14 57 -15 78 -5 122 19 94 82 164 181 201 47
17 156 11 201 -12z m2416 -140 c184 -19 280 -36 459 -82 214 -54 208 -38 63
-176 -158 -150 -150 -141 -282 -287 -120 -134 -213 -258 -267 -355 -18 -33
-38 -67 -45 -75 -17 -21 -61 -158 -74 -230 -12 -65 -5 -139 15 -180 20 -38 54
-66 120 -97 54 -25 70 -28 165 -27 90 0 123 5 238 38 74 21 175 53 225 71 106
38 492 229 647 320 155 92 145 88 179 70 95 -49 412 19 539 115 29 22 56 40
61 40 17 0 145 -126 178 -175 18 -27 61 -84 94 -125 81 -101 154 -209 145
-217 -3 -4 -39 -1 -79 6 -150 26 -215 29 -692 26 -472 -2 -595 -9 -630 -35 -5
-5 -59 -8 -118 -8 -101 1 -128 -4 -115 -18 4 -3 248 -9 545 -14 296 -5 559
-13 584 -19 99 -21 295 -20 439 4 54 8 18 -9 -91 -46 -52 -17 -140 -48 -196
-69 -56 -21 -121 -41 -145 -44 -72 -9 -438 -30 -883 -51 -159 -8 -303 -16
-320 -19 -16 -3 -52 -9 -80 -15 -71 -13 -398 -17 -610 -8 -165 7 -182 6 -208
-11 l-27 -18 60 -2 c33 -1 115 -13 182 -28 184 -38 242 -44 348 -34 323 32
460 43 580 46 74 1 164 5 199 9 35 4 145 4 245 -1 l181 -7 -55 -25 c-74 -33
-361 -127 -430 -140 -67 -14 -369 -39 -615 -52 -99 -5 -382 -9 -630 -9 -247
-1 -497 -4 -555 -9 -58 -5 -107 -7 -109 -6 -2 2 6 49 18 106 18 88 25 107 51
130 16 15 42 31 57 34 16 4 61 22 101 41 65 30 72 36 72 62 0 32 -10 37 -115
67 -72 20 -119 63 -133 120 -5 21 -19 80 -30 130 -12 50 -26 104 -33 120 -11
28 -12 28 -25 -36 -7 -36 -22 -87 -33 -115 -10 -27 -22 -62 -25 -78 -16 -69
-113 -138 -234 -167 -86 -20 -81 -57 12 -79 69 -17 154 -60 192 -98 32 -32 55
-101 71 -219 l6 -44 -211 0 c-116 0 -217 3 -226 6 -14 5 -16 29 -16 160 0 145
1 154 21 164 11 7 27 9 34 6 8 -3 17 -1 20 4 3 5 -12 10 -32 12 l-38 3 -2 285
-1 285 58 45 c48 37 63 57 86 110 38 92 44 212 14 292 -28 76 -103 157 -177
194 -51 25 -69 28 -153 28 -86 0 -101 -3 -161 -32 -86 -41 -143 -98 -182 -180
-78 -165 -29 -361 112 -453 38 -24 50 -37 45 -48 -4 -9 -9 -41 -12 -72 l-4
-57 -40 40 c-98 98 -257 132 -395 86 l-72 -24 0 149 c0 82 -4 171 -7 198 l-6
48 57 56 c56 53 221 181 335 259 69 48 339 179 490 239 413 165 871 234 1276
192z m-2320 -473 c6 -4 17 -18 25 -32 19 -34 23 -384 7 -640 -15 -238 -15
-355 1 -760 13 -344 8 -938 -11 -1163 l-11 -139 -33 -16 c-19 -8 -36 -13 -39
-11 -7 8 -19 2691 -12 2720 8 33 50 56 73 41z m-245 -78 c12 -15 15 -223 17
-1384 l4 -1367 -61 -20 -61 -20 0 1391 c0 765 4 1396 8 1402 24 35 63 34 93
-2z m1212 -9 c46 -19 91 -85 106 -155 21 -98 -45 -217 -133 -241 -159 -43
-289 49 -289 206 0 69 15 104 67 154 60 58 161 73 249 36z m2188 -140 c24 -22
55 -47 69 -56 l25 -17 -75 -34 c-141 -65 -270 -99 -296 -77 -19 15 -18 63 2
102 21 41 118 160 157 193 l29 25 23 -48 c12 -26 42 -66 66 -88z m1204 67 c-9
-30 -127 -120 -201 -153 -79 -36 -150 -54 -133 -33 6 8 15 14 20 14 9 0 137
86 244 164 60 44 83 46 70 8z m266 -99 c85 -89 173 -204 294 -383 54 -80 109
-159 122 -177 l25 -32 -51 -25 c-28 -15 -53 -26 -55 -26 -3 0 -17 21 -32 48
-84 146 -290 420 -401 533 l-55 56 39 37 c21 19 41 36 44 36 3 0 35 -30 70
-67z m-5572 -274 c45 -43 9 -119 -56 -119 -39 0 -83 40 -83 75 0 22 33 59 60
67 23 7 57 -3 79 -23z m1838 -169 c10 -22 19 -981 14 -1560 l-1 -145 -49 -18
c-27 -9 -51 -17 -55 -17 -3 0 -6 393 -6 873 0 683 3 876 12 885 21 21 71 10
85 -18z m-1370 -187 c-5 -82 -9 -97 -32 -124 -31 -38 -48 -71 -132 -254 -139
-302 -232 -625 -284 -975 -29 -199 -32 -240 -36 -550 l-4 -334 -45 -19 c-24
-11 -48 -17 -52 -13 -4 4 -7 170 -7 369 0 299 3 382 18 477 73 470 181 837
347 1185 52 109 169 313 198 348 15 17 16 17 25 1 6 -10 7 -59 4 -111z m936
101 c66 -33 108 -91 122 -167 11 -59 -2 -105 -46 -152 -98 -106 -269 -97 -346
19 -78 116 -17 263 127 307 43 13 110 10 143 -7z m5264 -82 c56 -29 111 -96
129 -159 18 -61 34 -195 25 -204 -3 -4 -40 -21 -81 -39 -160 -69 -235 -98
-242 -93 -5 2 -8 28 -8 56 0 78 -16 126 -45 133 -35 9 -88 -12 -144 -56 -61
-49 -86 -105 -79 -185 7 -87 22 -97 207 -141 86 -20 179 -47 207 -60 123 -58
179 -173 179 -369 0 -184 -46 -289 -193 -446 -85 -90 -132 -123 -266 -179 -77
-33 -115 -43 -175 -47 -135 -9 -195 20 -242 121 -27 57 -29 69 -28 186 l0 125
62 29 c34 17 94 43 132 59 39 16 74 33 79 38 6 5 18 9 28 9 16 0 18 -9 18 -70
0 -93 18 -130 63 -130 49 1 118 41 152 89 28 40 30 49 33 151 l4 109 -39 25
c-27 18 -72 31 -158 46 -228 40 -286 70 -340 175 -28 55 -30 66 -33 195 -2 76
1 163 7 194 28 151 158 312 312 385 122 59 216 82 314 77 56 -2 94 -10 122
-24z m-4165 -161 c26 -55 38 -63 124 -82 l59 -13 -60 -8 c-65 -9 -98 -28 -131
-76 l-21 -30 -49 54 -50 54 -69 1 -70 2 55 9 c112 19 113 19 145 81 17 31 33
57 37 57 3 0 17 -22 30 -49z m-899 -845 l-6 -626 -50 -15 c-28 -8 -52 -15 -54
-15 -2 0 -3 272 -3 606 l0 605 53 52 c42 42 53 49 59 36 3 -9 4 -298 1 -643z
m3996 643 c105 -24 147 -94 161 -273 10 -119 1 -244 -22 -301 -19 -49 -67
-116 -126 -177 -61 -63 -61 -64 27 -71 48 -4 59 -9 92 -45 58 -61 74 -128 74
-297 -1 -163 -14 -210 -90 -324 -93 -141 -197 -209 -467 -307 -84 -30 -195
-73 -247 -95 -51 -22 -95 -38 -98 -35 -7 7 -10 1218 -4 1489 l6 238 115 45
c63 24 158 61 210 81 199 78 278 93 369 72z m-5869 -19 c44 -44 31 -109 -26
-130 -30 -12 -54 -1 -83 36 -28 36 -26 60 5 89 33 30 77 32 104 5z m730 -271
c0 -168 -4 -288 -10 -299 -7 -13 -7 -21 0 -25 11 -7 14 -177 4 -235 -6 -34 -7
-35 -45 -32 -22 2 -83 -1 -136 -7 -53 -6 -98 -9 -101 -6 -6 6 30 196 51 270
48 164 66 219 134 400 41 110 77 203 79 207 20 31 24 -19 24 -273z m858 168
c8 -9 12 -199 12 -627 l1 -613 -48 -19 c-26 -10 -49 -18 -50 -18 -2 0 -3 285
-3 633 0 479 3 636 12 645 16 16 63 15 76 -1z m2730 -212 c4 -4 -236 -98 -333
-130 -110 -37 -176 -45 -369 -45 -168 0 -234 -5 -436 -31 -41 -5 -205 -12
-365 -14 -159 -3 -348 -7 -418 -10 l-128 -5 3 98 3 97 65 7 c64 6 533 24 940
35 113 3 207 8 210 10 6 5 823 -6 828 -12z m478 -340 c34 -170 69 -338 78
-371 9 -34 25 -104 35 -155 11 -52 34 -161 51 -244 17 -82 45 -224 61 -315 16
-91 32 -176 35 -190 5 -23 1 -27 -43 -42 -26 -9 -89 -34 -139 -56 -137 -61
-124 -69 -150 91 -12 76 -25 141 -28 144 -5 6 -25 0 -183 -57 -107 -38 -96
-17 -134 -237 l-23 -132 -61 -22 c-33 -12 -101 -41 -150 -65 -89 -43 -115 -51
-115 -36 0 4 14 79 30 167 17 88 39 220 50 293 11 74 27 164 35 200 8 37 24
123 35 192 31 184 88 492 110 595 10 50 28 162 39 249 12 88 24 163 28 166 5
4 69 28 143 54 74 27 151 56 170 66 19 10 41 17 49 17 11 -2 31 -84 77 -312z
m-1338 26 c-36 -15 -217 -86 -343 -133 -79 -31 -83 -31 -345 -39 -256 -7 -438
-21 -471 -34 -21 -8 -29 30 -29 131 l0 74 98 1 c53 1 203 4 332 8 129 3 360 6
513 6 247 0 275 -2 245 -14z m86 -1508 c-3 -18 -3 -33 0 -33 3 0 92 32 198 70
106 39 198 68 205 65 10 -3 13 -46 13 -173 l0 -168 -137 -53 c-248 -95 -366
-142 -485 -192 -64 -27 -118 -49 -121 -49 -6 0 2 1770 7 1786 3 6 19 14 38 18
18 4 87 26 153 49 l120 42 7 -665 c4 -366 5 -680 2 -697z m-909 1198 c-59 -26
-157 -65 -268 -105 l-98 -35 3 66 3 66 137 0 c75 0 142 -4 150 -8 7 -5 10 -4
5 1 -5 5 10 14 35 20 65 18 78 16 33 -5z m-1917 -133 l3 -118 -161 0 c-88 0
-160 2 -160 5 0 24 26 227 29 231 1 0 65 0 144 0 l142 -1 3 -117z m2285 -270
c3 -200 6 -595 7 -879 l2 -515 -142 -58 c-78 -32 -145 -55 -148 -51 -4 4 -7
234 -6 511 0 277 -3 504 -7 504 -3 0 -9 -10 -13 -22 -9 -33 -68 -289 -106
-458 -18 -80 -47 -203 -66 -275 -18 -71 -40 -180 -50 -241 -9 -62 -20 -117
-24 -123 -4 -7 -33 -19 -64 -27 -32 -8 -82 -26 -111 -38 l-53 -24 -45 177
c-26 97 -60 244 -77 326 -31 149 -106 434 -119 447 -3 4 -7 -223 -9 -505 -2
-282 -5 -520 -8 -529 -3 -11 -55 -37 -146 -72 -78 -31 -143 -54 -145 -52 -4 4
-6 409 -4 1168 l1 607 78 25 c42 13 129 43 192 66 156 57 150 55 150 34 0 -51
222 -838 240 -849 4 -3 13 9 18 27 18 60 232 932 242 988 l10 55 93 33 c50 18
135 50 187 71 52 22 100 39 106 40 8 1 13 -106 17 -361z m-2459 6 c9 -8 16
-12 16 -7 0 4 5 1 10 -7 6 -10 10 -11 10 -2 0 8 15 11 48 10 26 -1 57 2 70 6
21 7 22 5 22 -46 l0 -54 -42 4 c-24 2 -49 11 -57 20 -13 16 -13 16 -8 0 4 -10
2 -18 -3 -18 -6 0 -11 8 -11 18 -1 14 -2 13 -7 -3 l-5 -20 -8 20 c-6 17 -8 17
-8 3 -1 -17 -21 -27 -21 -10 0 4 -34 6 -75 4 -74 -4 -75 -3 -75 21 0 43 10 57
41 57 16 0 29 5 29 10 0 16 57 12 74 -6z m934 -907 c2 -375 0 -774 -3 -887
l-7 -206 -42 -13 c-22 -7 -83 -30 -134 -52 -119 -51 -137 -53 -136 -16 0 15 1
413 2 886 l2 858 148 56 c81 31 152 56 157 56 7 1 11 -235 13 -682z m4699 526
c-3 -5 -19 -39 -37 -77 -25 -54 -55 -93 -137 -177 -116 -119 -221 -198 -400
-302 -113 -66 -422 -223 -548 -279 -33 -15 -127 -57 -210 -94 -402 -178 -564
-252 -940 -427 -174 -81 -651 -297 -765 -347 -47 -20 -213 -94 -370 -165 -533
-238 -951 -403 -1214 -479 -237 -69 -515 -116 -678 -116 -145 1 -320 63 -406
144 -47 44 -82 92 -82 111 0 15 43 1 105 -36 98 -58 161 -77 288 -89 229 -22
498 23 841 140 334 114 816 309 1246 505 52 24 214 96 360 160 146 64 407 182
580 262 604 278 744 341 985 441 215 89 589 266 720 339 146 83 282 172 349
231 60 53 107 67 133 41 16 -16 37 -1 23 16 -8 10 -6 18 8 32 10 10 26 44 36
75 15 50 22 59 59 77 44 22 61 26 54 14z m-5218 -1445 c-11 -87 -41 -163 -92
-240 -94 -140 -229 -252 -357 -294 -85 -28 -195 -24 -265 10 -140 69 -191 219
-170 498 l7 96 121 45 c67 25 134 49 149 52 l27 7 3 -152 3 -152 28 -24 c34
-29 58 -30 113 -5 48 22 87 61 111 111 19 40 18 -4 21 801 l2 546 128 47 c70
26 136 50 147 55 20 8 20 3 26 -663 4 -372 3 -701 -2 -738z m5554 1180 c-49
-109 -125 -239 -168 -291 -42 -51 -120 -115 -200 -166 -33 -21 -127 -83 -208
-137 -82 -54 -175 -116 -208 -136 -129 -82 -852 -465 -909 -483 -24 -7 -127
-55 -590 -275 -118 -57 -296 -140 -395 -185 -99 -45 -282 -130 -407 -189 -125
-58 -230 -106 -234 -106 -6 0 -273 -115 -424 -183 -97 -43 -209 -91 -302 -128
-54 -21 -144 -57 -200 -80 -57 -23 -143 -57 -193 -76 -49 -19 -117 -45 -150
-58 -75 -29 -412 -119 -523 -139 -46 -9 -158 -19 -250 -22 -139 -6 -183 -4
-262 11 -131 25 -180 51 -180 97 0 7 42 8 133 4 336 -18 763 78 1327 298 79
31 189 76 245 100 55 24 188 81 295 126 107 45 255 113 329 151 74 38 142 69
151 69 9 0 85 31 169 70 83 39 154 70 156 70 3 0 72 31 153 69 335 157 573
266 677 310 219 93 957 452 1259 612 32 17 82 35 110 39 28 4 41 8 30 9 -51 3
-76 99 -35 133 50 39 111 16 111 -42 0 -12 3 -20 8 -18 4 2 79 51 168 110 221
147 311 240 418 430 17 30 19 31 27 13 6 -17 8 -17 8 -2 1 9 6 17 11 17 6 0
10 8 10 18 0 23 71 70 78 51 2 -4 -14 -45 -35 -91z m-306 -93 c-9 -11 -36 -42
-60 -69 -66 -76 -181 -158 -323 -229 -71 -36 -167 -90 -213 -121 -84 -56 -807
-423 -1001 -508 -58 -26 -240 -110 -405 -188 -165 -78 -345 -162 -400 -187
-55 -25 -143 -65 -195 -88 -52 -24 -117 -53 -145 -65 -27 -13 -101 -47 -164
-76 -62 -30 -115 -54 -117 -54 -3 0 -43 -18 -90 -40 -47 -22 -88 -40 -90 -40
-3 0 -60 -25 -127 -56 -118 -55 -344 -153 -457 -199 -308 -127 -397 -161 -680
-260 -140 -49 -403 -113 -519 -126 -52 -7 -163 -9 -250 -7 -221 7 -332 36
-483 124 -29 17 -70 55 -66 60 3 2 54 -13 114 -33 l109 -36 215 -5 c239 -4
358 9 592 68 226 57 583 183 886 314 84 36 154 66 157 66 6 0 315 137 530 235
88 40 214 96 280 125 66 29 235 107 375 173 371 174 607 282 760 347 144 62
830 391 958 461 92 50 216 120 292 164 30 18 79 45 109 60 81 41 228 140 280
190 34 33 49 41 58 33 9 -7 13 -7 13 1 0 6 -5 11 -11 11 -6 0 -9 6 -6 13 2 6
9 11 15 10 22 -5 62 17 64 34 0 10 4 -4 7 -32 5 -39 2 -54 -12 -70z m-767 66
c0 -5 -8 -12 -18 -15 -13 -5 -19 -17 -20 -42 -1 -25 2 -33 11 -27 7 4 21 9 32
10 27 4 -43 -35 -183 -102 -238 -114 -593 -274 -722 -325 -130 -52 -297 -124
-415 -180 -50 -24 -146 -69 -215 -100 -69 -32 -228 -106 -355 -165 -126 -59
-367 -167 -535 -240 -168 -73 -379 -165 -470 -205 -204 -90 -668 -275 -854
-342 -183 -66 -274 -93 -426 -128 -242 -55 -394 -62 -557 -24 -69 15 -153 50
-153 63 0 16 149 54 225 57 279 11 359 22 550 76 246 69 733 252 1069 403 80
36 208 92 283 124 76 33 226 99 333 146 107 48 265 118 350 155 85 37 187 82
225 99 205 95 482 218 645 286 30 13 118 51 195 84 77 34 226 96 330 137 105
41 243 97 308 124 65 28 122 50 128 50 5 0 39 13 75 30 37 16 70 27 75 24 5
-3 9 -1 9 4 0 5 15 14 33 20 43 13 47 14 47 3z m-4950 -21 c22 -22 18 -41 -17
-72 -18 -17 -153 -76 -328 -144 -198 -78 -316 -125 -445 -179 -74 -31 -142
-58 -150 -58 -10 -1 -16 9 -18 31 -5 51 45 92 175 142 246 95 378 148 553 222
102 43 191 78 198 78 6 0 21 -9 32 -20z m6213 -29 c-2 -11 2 -21 7 -21 10 0 9
-6 -27 -100 -57 -147 -150 -305 -263 -448 -77 -97 -249 -260 -337 -318 -32
-21 -78 -54 -103 -72 -25 -19 -56 -40 -70 -46 -14 -6 -31 -17 -39 -24 -10 -9
-17 -10 -24 -3 -6 6 -16 11 -21 11 -6 0 -5 -4 2 -9 11 -6 9 -10 -7 -14 -17 -4
-20 -1 -19 19 1 13 5 24 9 24 4 0 10 10 13 23 6 22 23 39 106 102 25 19 70 53
100 77 84 64 179 164 245 258 32 47 73 103 91 125 53 66 195 285 233 359 20
38 41 71 47 73 6 2 16 -7 22 -19 10 -23 11 -22 11 5 1 19 5 27 14 24 6 -2 11
-14 10 -26z m-6203 -247 c18 -20 3 -50 -33 -68 -37 -17 -163 -64 -282 -106
-282 -98 -352 -123 -450 -160 -61 -23 -132 -53 -159 -66 -64 -32 -90 -29 -94
11 -5 56 -1 58 473 235 301 113 495 178 516 173 10 -3 23 -11 29 -19z m-17
-228 c23 -18 22 -38 -6 -64 -12 -12 -127 -59 -257 -106 -129 -46 -305 -110
-390 -141 -85 -32 -191 -69 -234 -82 -76 -24 -80 -24 -93 -7 -32 43 -9 70 87
107 128 48 398 146 590 212 107 37 206 74 220 81 32 17 60 17 83 0z m5692 -34
c0 -29 -100 -132 -203 -209 -234 -175 -651 -410 -1102 -620 -124 -58 -375
-179 -558 -270 -184 -90 -379 -183 -435 -207 -56 -24 -174 -79 -262 -121 -136
-65 -471 -212 -975 -427 -158 -67 -436 -178 -448 -178 -5 0 -42 -14 -83 -31
-146 -61 -258 -97 -565 -178 -112 -30 -287 -51 -429 -51 -221 0 -305 24 -349
100 -19 33 -19 33 0 26 66 -26 171 -38 339 -39 192 -1 331 16 460 54 39 11
122 35 185 53 207 60 552 192 852 327 62 28 129 57 148 64 59 21 665 288 840
370 91 43 199 92 240 110 96 41 511 239 655 312 61 30 171 82 245 115 204 90
807 399 912 468 51 33 135 85 186 116 51 31 127 83 168 117 128 105 179 133
179 99z m633 -533 c42 -41 42 -77 1 -118 -17 -17 -40 -31 -51 -31 -27 0 -78
56 -78 87 0 27 58 93 82 93 8 0 29 -14 46 -31z m-828 -392 c83 -39 132 -87
176 -169 35 -66 38 -82 42 -166 4 -88 3 -96 -27 -156 -40 -82 -96 -145 -160
-179 -244 -134 -526 26 -539 305 -12 236 148 405 373 395 61 -3 93 -10 135
-30z m-600 -76 c0 -4 -10 -23 -22 -42 -70 -105 -736 -455 -898 -471 -20 -3
-26 2 -28 24 -4 34 10 43 158 103 118 47 532 260 675 346 75 46 115 60 115 40z
m-1015 -622 c19 -156 26 -177 78 -232 51 -54 80 -63 240 -73 65 -4 120 -10
122 -14 7 -11 -58 -20 -150 -20 -131 -2 -174 -12 -207 -51 -53 -63 -60 -86
-77 -264 -9 -96 -20 -164 -24 -157 -5 7 -15 74 -23 150 -19 182 -34 230 -83
275 -44 40 -59 43 -210 52 -100 5 -120 9 -109 20 2 3 60 9 128 15 131 11 149
17 201 73 44 47 55 78 74 225 10 72 20 131 22 129 2 -2 10 -60 18 -128z m-185
-80 c0 -6 -12 -23 -27 -38 -38 -38 -374 -147 -493 -161 -105 -12 -247 -13
-254 -1 -9 15 214 89 344 115 180 35 299 63 345 80 48 18 85 20 85 5z"/>
<path d="M4843 7629 c-44 -28 -48 -50 -19 -107 44 -88 70 -92 113 -16 30 52
29 80 -6 115 -35 34 -46 35 -88 8z"/>
<path d="M4305 7521 c-64 -13 -30 -63 57 -82 48 -11 93 2 109 33 14 26 3 37
-47 49 -43 10 -75 10 -119 0z"/>
<path d="M4575 7163 c-33 -141 -40 -149 -170 -203 l-50 -21 85 -45 c105 -56
128 -77 143 -131 6 -24 14 -43 18 -43 4 0 17 25 29 55 23 56 78 115 138 147
47 25 40 42 -28 67 -76 28 -83 40 -124 224 -11 46 -23 31 -41 -50z"/>
<path d="M7174 5823 c-38 -14 -85 -29 -104 -35 l-35 -9 -3 -185 c-3 -164 -2
-184 13 -184 8 0 51 14 95 30 127 49 160 106 160 273 0 134 -18 149 -126 110z"/>
<path d="M7130 5136 c-78 -27 -95 -36 -93 -52 1 -10 5 -95 9 -189 3 -93 8
-171 9 -173 1 -2 44 14 94 34 144 57 176 110 169 280 -5 146 -25 156 -188 100z"/>
<path d="M6110 5165 c0 -19 -11 -97 -24 -173 -29 -164 -46 -287 -46 -326 0
-32 -7 -33 108 10 59 22 73 31 69 45 -3 10 -24 121 -48 248 -41 217 -59 277
-59 196z"/>
<path d="M7617 2216 c-24 -24 -67 -56 -97 -72 -49 -25 -65 -29 -145 -29 -104
0 -139 13 -210 79 -40 38 -45 40 -45 21 0 -33 40 -127 67 -156 13 -15 50 -39
81 -55 45 -23 70 -29 117 -28 109 1 231 79 275 175 21 47 27 109 10 109 -6 0
-30 -20 -53 -44z"/>
</g>
</svg>
